<?xml version="1.0" encoding="UTF-8" standalone="no"?>
<svg
   width="94.001488mm"
   height="63.745571mm"
   viewBox="0 0 94.001488 63.745571"
   version="1.1"
   id="svg8"
   sodipodi:docname="logo.svg"
   inkscape:version="1.4.2 (ebf0e940d0, 2025-05-08)"
   xmlns:inkscape="http://www.inkscape.org/namespaces/inkscape"
   xmlns:sodipodi="http://sodipodi.sourceforge.net/DTD/sodipodi-0.dtd"
   xmlns="http://www.w3.org/2000/svg"
   xmlns:svg="http://www.w3.org/2000/svg">
  <sodipodi:namedview
     id="namedview1"
     pagecolor="#ffffff"
     bordercolor="#000000"
     borderopacity="0.25"
     inkscape:showpageshadow="2"
     inkscape:pageopacity="0.0"
     inkscape:pagecheckerboard="0"
     inkscape:deskcolor="#d1d1d1"
     inkscape:document-units="mm"
     inkscape:zoom="2.6579865"
     inkscape:cx="150.86608"
     inkscape:cy="105.53101"
     inkscape:window-width="1920"
     inkscape:window-height="1008"
     inkscape:window-x="0"
     inkscape:window-y="0"
     inkscape:window-maximized="1"
     inkscape:current-layer="svg8" />
  <defs
     id="defs7">
    <!-- Main gradient: orange to magenta to purple (diagonal) -->
    <linearGradient
       id="mainGradient"
       x1="86.939453"
       y1="133.66765"
       x2="91.142036"
       y2="129.35564"
       gradientTransform="matrix(1.506613,0,0,0.66374047,-32.643472,-64.174746)"
       gradientUnits="userSpaceOnUse">
      <stop
         offset="0"
         style="stop-color:#E91E63"
         id="stop2" />
      <stop
         offset="100%"
         style="stop-color:#7E57C2"
         id="stop3" />
    </linearGradient>
    <!-- Text gradient: horizontal -->
    <linearGradient
       id="textGradient"
       x1="24.067528"
       y1="447.08115"
       x2="65.743919"
       y2="447.08115"
       gradientTransform="matrix(1.40449,0,0,0.26605048,-34.879831,-129.62611)"
       gradientUnits="userSpaceOnUse">
      <stop
         offset="0%"
         style="stop-color:#F5A623"
         id="stop4" />
      <stop
         offset="50%"
         style="stop-color:#E91E63"
         id="stop5" />
      <stop
         offset="100%"
         style="stop-color:#7E57C2"
         id="stop6" />
    </linearGradient>
  </defs>
  <!-- Logo shape (scaled and centered) -->
  <g
     transform="translate(-4.2071048,1.6669158)"
     id="g7">
    <path
       fill="url(#mainGradient)"
       d="M 9.8187896,50.91863 C 9.4540446,50.79921 8.9892041,50.982484 8.5388051,50.749574 8.0884061,50.516664 7.02284,50.252638 6.582554,49.751188 c -0.440285,-0.50146 -1.0776599,-1.46104 -1.3340529,-2.13239 -0.331988,-0.8693 -0.087183,-2.100714 0.017133,-3.111444 0.08056,-0.78058 0.5188646,-1.952445 0.8093326,-2.521815 0.348982,-0.68406 0.8769445,-0.903834 3.2539954,-2.361833 C 10.672333,38.79973 33.350728,33.728102 32.005254,32.575862 27.240194,28.495149 10.969677,22.948491 8.7095875,21.229325 c -0.4496295,-0.342016 -1.005337,-1.22452 -1.30275,-1.87936 -0.352342,-0.77579 -0.540693,-1.74375 -0.540583,-2.77813 1.05e-4,-1.00127 0.17458,-1.92947 0.472476,-2.51354 0.259769,-0.50932 0.3856245,-1.15676 1.302583,-1.80912 0.456651,-0.4857 1.306525,-1.13079 1.8886075,-1.43355 0.74049,-0.38514 1.535097,-0.54689 2.645833,-0.53857 0.873125,0.007 2.004219,0.18856 2.513542,0.4045 0.509322,0.21594 2.831041,1.93661 5.159374,3.82371 15.679728,12.708371 23.830312,10.491959 27.209083,18.351554 2.413799,3.824023 3.294324,5.481128 7.359496,6.775315 1.4058,0.0906 2.45092,2.2e-4 3.48951,-0.30171 0.81545,-0.23706 1.6438,-0.57864 1.84077,-0.75907 0.19697,-0.18043 0.59123,-0.45785 0.87612,-0.61649 0.2849,-0.15865 0.97653,-1.0408 1.53697,-1.96035 0.97351,-1.59729 1.0147,-1.75679 0.92294,-3.57379 -0.0784,-1.55271 -0.2427,-2.1391 -0.89492,-3.19403 -0.43938,-0.71069 -1.19085,-1.55631 -1.66993,-1.87916 -0.47907,-0.32285 -1.4031,-0.66679 -2.05338,-0.7643 -0.83515,-0.12524 -1.52819,-0.0452 -2.36008,0.27248 -0.66611,0.25439 -1.52295,0.86858 -1.9724,1.41384 -0.43706,0.53023 -0.86999,1.36561 -0.96206,1.8564 -0.0921,0.49079 -0.0349,1.33448 0.12696,1.87486 0.1619,0.54038 0.57847,1.2494 0.9257,1.57561 0.34723,0.32621 0.97431,0.6958 1.39351,0.82131 0.6843,0.20489 0.69877,0.23053 0.14155,0.25095 -0.34135,0.0125 -0.94211,-0.16716 -1.33501,-0.39925 -0.39291,-0.2321 -0.97683,-0.80501 -1.2976,-1.27314 -0.41832,-0.61051 -0.58321,-1.24224 -0.58321,-2.23439 0,-0.83532 0.19845,-1.77206 0.50101,-2.36487 0.27556,-0.53991 0.72204,-1.17851 0.99219,-1.41912 0.27014,-0.24061 1.00405,-0.70269 1.6309,-1.02685 0.77485,-0.40069 1.58963,-0.58534 2.545,-0.57676 0.95781,0.009 1.81648,0.22298 2.69672,0.67327 0.71031,0.36335 1.73173,1.1174 2.26983,1.67568 0.53809,0.55827 1.27382,1.66989 1.63493,2.47025 0.36112,0.80037 0.68584,1.93146 0.7216,2.51355 0.259329,2.488586 -0.02675,5.222839 -1.87941,6.87932 -7.688866,6.874682 -15.495401,-1.305344 -20.779356,-0.696433 -8.174475,0.942009 -30.055433,12.052714 -31.727942,11.75525 -0.768213,0.0587 -1.156259,0.211095 -1.521003,0.09159 z M 88.203098,48.694254 v -1.5875 h 1.45521 1.45521 v 1.5875 1.5875 h -1.45521 -1.45521 z m -19.52685,-5.88698 0.08,-1.38906 1.38906,-0.08 1.38906,-0.08 v 1.46903 1.46904 h -1.46903 -1.46904 z m 8.63776,3.4095 v -2.11667 h 2.12697 2.12697 l -0.0452,2.11667 -0.0452,2.11667 h -2.08178 -2.08179 z m -2.86924,-5.16234 c 0,-0.56389 0.0755,-1.4026 0.1677,-1.86379 l 0.16771,-0.83852 1.61823,0.0778 1.61823,0.0779 0.0782,1.78594 0.0782,1.78593 h -1.86417 -1.86417 z M 91.3878,24.980505 c -0.131933,-0.99457 -0.0874,-1.42564 0.16435,-1.59029 0.18994,-0.12422 0.88112,-0.194836 1.535972,-0.15694 l 1.19062,0.0689 0.0794,1.52136 0.0793,1.52135 h -1.43432 -1.434332 z m -39.068721,2.347609 c -0.495825,0.97845 -0.670875,1.74308 -0.677905,2.96107 -0.007,1.14274 0.15301,1.95801 0.524915,2.68136 0.29391,0.57165 0.87271,1.35921 1.28622,1.75013 0.41351,0.39093 1.10902,0.84668 1.54558,1.01278 0.43657,0.1661 1.41907,0.3084 2.18335,0.31622 1.06466,0.0109 1.62945,-0.14451 2.41534,-0.66459 0.61615,-0.40774 1.25918,-1.161 1.61031,-1.88636 0.46234,-0.95506 0.54485,-1.44264 0.39462,-2.33185 -0.13408,-0.79363 -0.48197,-1.41633 -1.18284,-2.1172 -0.54609,-0.54609 -0.83744,-0.99289 -0.64745,-0.99289 0.19,0 0.69867,0.29721 1.13038,0.66047 0.43171,0.36326 0.98369,1.15725 1.22664,1.76442 0.30655,0.76616 0.38685,1.43437 0.26242,2.1838 -0.0986,0.59392 -0.33318,1.37751 -0.52126,1.74131 -0.18809,0.3638 -0.68002,0.97529 -1.0932,1.35885 -0.41317,0.38357 -1.16794,0.91534 -1.67726,1.18171 -0.62164,0.32511 -1.49138,0.48403 -2.64584,0.48344 -1.27938,-6.4e-4 -2.02468,-0.15811 -2.91041,-0.61492 -0.65485,-0.33772 -1.588215,-0.98816 -2.074155,-1.44542 -1.7627,-1.627086 -2.272472,-3.681506 -2.28581,-5.99075 -0.002,-2.04202 0.11724,-2.81134 0.63439,-4.10104 1.529567,-4.583858 7.599559,-5.936989 11.192599,-5.078224 3.952708,0.862356 7.488885,3.39146 8.808435,7.883527 1.219038,4.149901 0.430388,3.529309 -0.40475,2.136387 -1.681781,-2.805035 -3.196889,-5.157411 -5.505153,-5.931592 -4.56426,-2.055911 -9.047832,-1.700539 -11.589166,3.039362 z m 28.211099,10.65054 v -1.45521 h 1.32292 1.32292 v 1.45521 1.45521 h -1.32292 -1.32292 z m 7.36717,3.07878 v -1.7198 h 1.5875 1.5875 v 1.7198 1.71979 h -1.5875 -1.5875 z m -17.68591,-6.10828 v -1.86529 h 1.59958 1.59959 l -0.0782,1.78594 -0.0782,1.78594 -1.52135,0.0794 -1.52135,0.0793 z m 6.00967,1.14577 c -0.10386,-0.10386 -0.18884,-0.76431 -0.18884,-1.46766 v -1.27882 h 1.33674 1.33675 l -0.08,1.38907 -0.08,1.38906 -1.06793,0.0786 c -0.58736,0.0432 -1.15291,-0.006 -1.25677,-0.11024 z m -3.62842,-5.5246 v -1.45521 h 1.32291 1.32292 v 1.45521 1.45521 h -1.32292 -1.32291 z M 85.797267,20.286416 c 0,-0.13717 -0.17638,-0.677437 -0.17638,-1.289837 0,-0.6124 0.0703,-1.46495 0.15622,-1.89456 0.15496,-0.77482 0.17199,-0.781527 2.11666,-0.83172 l 1.96045,-0.0506 v 2.12156 2.121557 h -1.94028 c -1.06715,0 -2.11667,-0.0392 -2.11667,-0.17639 z m 0.951193,12.976789 v -2.48639 l 2.3151,-0.11151 c 1.27331,-0.0613 2.4044,-0.0665 2.51354,-0.0115 0.10914,0.055 0.19844,1.22404 0.19844,2.5979 v 2.49793 H 89.262 86.74846 Z M 64.793919,16.861428 v -2.24896 h 2.24896 2.24896 v 2.24896 2.24895 h -2.24896 -2.24896 z m 10.05417,-3.70417 v -1.455207 h 1.45521 1.45521 l -0.004,0.859897 c -0.002,0.47294 -0.0754,1.12778 -0.16315,1.45521 -0.13783,0.51431 -0.33534,0.59531 -1.45159,0.59531 h -1.29206 z m 8.877253,15.132739 c -0.097,-0.097 -0.17638,-0.75186 -0.17638,-1.45521 V 25.55597 l 1.52135,-3.6e-4 1.52135,-3.6e-4 -0.0906,1.455567 -0.0906,1.45556 h -1.25433 c -0.68989,0 -1.33371,-0.0794 -1.43073,-0.17638 z M 70.614759,10.246841 V 8.7916309 h 1.45521 1.4552 v 1.4552101 1.45521 h -1.4552 -1.45521 z m 3.98251,11.588367 v -3.175 h 3.3073 3.30729 v 3.175 3.175 h -3.30729 -3.3073 z m -25.366091,-5.833284 0.08,-1.38906 h 1.32292 1.32291 l 0.08,1.38906 0.08,1.38906 h -1.48286 -1.48287 z m 8.718029,-3.522042 c -0.0702,-0.90951 -0.0775,-1.74294 -0.0162,-1.85208 0.0613,-0.10914 0.87839,-0.19844 1.81569,-0.19844 h 1.70418 v 1.85208 1.85208 h -1.68799 -1.68799 z"
       id="path7"
       style="fill:url(#mainGradient)"
       sodipodi:nodetypes="cssssssssccccccscccsssssssscsccssssssssscssscssccccccccccccccccccccccccccccccccccccccccssscccccsscssssscsssscsscsccccscssssccccccccccccccccccccccccccccscccccccccccccccccsssscccssscccssccccccccccccccccccsscccscccccsccccccccccccccccccccccccccccccsscccccc" />
  </g>
  <!-- Text "mutflow" (scaled and centered below logo) -->
  <g
     transform="matrix(0.66377189,0,0,0.66377189,25.549979,52.088467)"
     id="g8">
    <path
       fill="url(#textGradient)"
       d="m 14.368456,0.18046204 c -0.652813,-0.290145 -1.187052,-0.896322 -1.378609,-1.56423904 -0.08683,-0.302762 -0.157872,-1.770027 -0.157872,-3.2606006 v -2.7101232 h 0.64694 0.646939 l 0.01151,1.6577835 c 0.0063,0.9117755 0.06335,2.2278223 0.126705,2.9245423 0.09818,1.079591 0.17337,1.310637 0.508914,1.563738 0.84665,0.63863004 2.186013,0.51904504 2.970258,-0.265198 l 0.425988,-0.42599 v -2.7367387 -2.7367384 l 0.687374,0.049758 0.687373,0.049758 0.04341,3.7603351 0.04341,3.76033604 h -0.64992 c -0.573046,0 -0.649921,-0.04462 -0.649921,-0.377381 0,-0.561676 -0.136288,-0.601165 -0.59801,-0.173256 -0.740009,0.685816 -2.379753,0.921734 -3.364496,0.484062 z m 9.03437,-0.08265 c -0.279396,-0.17037 -0.570519,-0.406637 -0.64694,-0.525036 -0.07642,-0.118405 -0.175339,-1.45255204 -0.219816,-2.96477104 l -0.08087,-2.7494969 -0.687374,-0.049758 c -0.663503,-0.047986 -0.687373,-0.068745 -0.687373,-0.5972038 0,-0.5284651 0.02387,-0.5491998 0.687373,-0.5972098 l 0.687374,-0.049758 0.04818,-0.9188296 c 0.04615,-0.8801172 0.06914,-0.9234266 0.545843,-1.0281269 0.633924,-0.1392378 0.775034,0.074485 0.778255,1.17871 l 0.0025,0.849113 h 1.051278 1.051276 v 0.5660707 0.5660713 h -1.051309 -1.051278 v 2.487085 c 0,2.78862404 0.04115,2.89730304 1.094424,2.89021204 0.332087,-0.0024 0.706829,-0.03038 0.832761,-0.06249 0.148444,-0.0379 0.270023,0.13027 0.34571,0.478133 0.10282,0.472569 0.06944,0.554542 -0.27993,0.687374 -0.669605,0.25458 -1.870236,0.175126 -2.420088,-0.16015 z m 16.25856,0.08783 c -1.538455,-0.549781 -2.408205,-1.74390104 -2.526274,-3.46843704 -0.05777,-0.843422 -0.0031,-1.2434138 0.250961,-1.8283553 1.328951,-3.0628877 5.639813,-3.2097725 7.182144,-0.2447205 0.43464,0.835567 0.470088,2.6268728 0.06988,3.5312338 -0.776004,1.75357104 -3.085059,2.68628304 -4.976713,2.01027904 z M 42.397513,-1.160351 c 1.126684,-0.841185 1.474179,-2.29268 0.873815,-3.6498959 -0.851821,-1.9256839 -3.512565,-1.9764753 -4.496264,-0.08583 -0.327072,0.6286237 -0.290175,2.1975759 0.06777,2.8813489 0.615952,1.17666904 2.512471,1.63250104 3.554682,0.854377 z M -1.0772285,-3.553735 v -3.8007658 h 0.64694 c 0.610998,0 0.64694,0.026957 0.64694,0.4852047 0,0.5071376 0.22383,0.6546704 0.379153,0.2499103 0.15249,-0.397382 1.33676,-0.896854 2.12649,-0.896854 0.9493648,0 1.7147478,0.3238141 2.1509598,0.9100088 l 0.345829,0.4647391 0.369579,-0.4416449 c 0.79717,-0.952609 2.599059,-1.2247088 3.751713,-0.5665358 1.1266137,0.6433066 1.2996137,1.2172023 1.3643217,4.5259166 l 0.05615,2.87079304 H 10.01733 9.2738133 V -2.348752 c 0,-2.7428698 -0.130773,-3.3490717 -0.799716,-3.7070749 -0.41555,-0.2223965 -1.51246,-0.2114668 -2.020767,0.020111 -0.760193,0.3463705 -0.86035,0.7103949 -0.986226,3.5844819 L 5.3489313,0.24701904 H 4.7236133 4.0982953 V -2.397685 c 0,-2.4750003 -0.02335,-2.6793273 -0.363903,-3.1841665 -0.4871908,-0.722217 -1.2313158,-0.9164273 -2.1569328,-0.5629292 -1.125167,0.4297065 -1.199067,0.658821 -1.199067,3.7174847 v 2.67431504 h -0.727807 -0.727807 z m 29.5974935,0.566077 v -3.2347004 h -0.703549 c -0.689238,0 -0.703218,-0.010697 -0.687374,-0.5256411 0.0154,-0.4997838 0.05,-0.52808 0.703549,-0.5753687 l 0.687374,-0.049758 6.05e-4,-0.8398093 c 0.0012,-1.3739534 0.677294,-2.1666575 2.075619,-2.4328335 0.74926,-0.142631 2.013403,0.18792 1.89534,0.49559 -0.04945,0.128895 -0.08993,0.3687008 -0.08993,0.5329033 0,0.2646238 -0.09954,0.2882865 -0.875698,0.2081781 -0.788583,-0.081386 -0.917295,-0.04878 -1.293881,0.3278059 -0.311925,0.3119248 -0.418184,0.5844342 -0.418184,1.0724753 v 0.6542915 h 1.132149 1.132142 v 0.5660711 0.5660713 h -1.132142 -1.132149 v 3.2347005 3.23469404 h -0.646934 -0.646937 z m 5.337252,-2.1025579 v -5.3372531 h 0.727805 0.72781 v 5.3372531 5.33725294 h -0.72781 -0.727805 z M 48.331499,0.04486804 C 47.338625,-2.742638 45.825898,-7.1337732 45.825898,-7.2283813 c 0,-0.069368 0.327513,-0.1261195 0.727811,-0.1261195 0.414002,0 0.727804,0.075426 0.727804,0.1749365 0,0.3103416 1.690242,5.4857823 1.791593,5.4857823 0.05385,0 0.448968,-1.037125 0.877978,-2.304722 1.168593,-3.4527932 1.132998,-3.3845681 1.735,-3.3253471 0.510213,0.050186 0.510812,0.051409 1.445755,2.880579 0.51443,1.5566961 0.938525,2.8667521 0.942419,2.9112291 0.0037,0.0445 0.446731,-1.247382 0.984059,-2.8707989 l 0.976969,-2.9516589 h 0.71078 0.71078 l -0.573932,1.5769109 c -0.315666,0.8673048 -0.919924,2.5594609 -1.342791,3.7603419 l -0.768857,2.18341804 -0.641504,0.04823 -0.641503,0.04823 -0.85555,-2.63600604 c -0.470546,-1.449807 -0.910804,-2.6950365 -0.97835,-2.767186 -0.06754,-0.07215 -0.551401,1.110252 -1.075245,2.627557 l -0.952444,2.75873304 -0.611581,6.11e-4 c -0.343552,3.61e-4 -0.643141,-0.08796 -0.68359,-0.201533 z"
       id="path8"
       style="fill:url(#textGradient);stroke-width:0.611282" />
  </g>
</svg>
