<?xml version="1.0" encoding="UTF-8" standalone="no"?>
<svg
   width="94.001488mm"
   height="63.745571mm"
   viewBox="0 0 94.001488 63.745571"
   version="1.1"
   id="svg8"
   sodipodi:docname="logo.svg"
   inkscape:version="1.4.2 (ebf0e940d0, 2025-05-08)"
   xmlns:inkscape="http://www.inkscape.org/namespaces/inkscape"
   xmlns:sodipodi="http://sodipodi.sourceforge.net/DTD/sodipodi-0.dtd"
   xmlns="http://www.w3.org/2000/svg"
   xmlns:svg="http://www.w3.org/2000/svg">
  <sodipodi:namedview
     id="namedview1"
     pagecolor="#ffffff"
     bordercolor="#000000"
     borderopacity="0.25"
     inkscape:showpageshadow="2"
     inkscape:pageopacity="0.0"
     inkscape:pagecheckerboard="0"
     inkscape:deskcolor="#d1d1d1"
     inkscape:document-units="mm"
     inkscape:zoom="2.3640547"
     inkscape:cx="100.46299"
     inkscape:cy="64.507813"
     inkscape:window-width="1920"
     inkscape:window-height="1008"
     inkscape:window-x="0"
     inkscape:window-y="0"
     inkscape:window-maximized="1"
     inkscape:current-layer="g7" />
  <defs
     id="defs7">
    <!-- Main gradient: Kotlin colors matching text gradient (horizontal span) -->
    <linearGradient
       id="mainGradient"
       x1="23"
       y1="30"
       x2="75"
       y2="30"
       gradientUnits="userSpaceOnUse">
      <stop
         offset="0%"
         style="stop-color:#F5A623"
         id="stop1" />
      <stop
         offset="50%"
         style="stop-color:#E91E63"
         id="stop2" />
      <stop
         offset="100%"
         style="stop-color:#7E57C2"
         id="stop3" />
    </linearGradient>
    <!-- Text gradient: horizontal -->
    <linearGradient
       id="textGradient"
       x1="24.067528"
       y1="447.08115"
       x2="65.743919"
       y2="447.08115"
       gradientTransform="matrix(1.9362094,0,0,0.36677331,-55.320901,-173.59105)"
       gradientUnits="userSpaceOnUse">
      <stop
         offset="0%"
         style="stop-color:#F5A623"
         id="stop4" />
      <stop
         offset="50%"
         style="stop-color:#E91E63"
         id="stop5" />
      <stop
         offset="100%"
         style="stop-color:#7E57C2"
         id="stop6" />
    </linearGradient>
  </defs>
  <!-- Logo shape (scaled and centered) -->
  <g
     transform="translate(-4.2071048,1.6669158)"
     id="g7">
    <path
       fill="url(#mainGradient)"
       d="m 27.70571,37.509688 c -0.335126,-0.395247 3.711046,-2.484736 5.767063,-3.41747 1.388814,-0.630051 2.405609,-1.080911 3.173332,-1.404296 4.181056,-1.76117 4.318226,-1.420075 0.05043,-3.992141 -0.871684,-0.525335 -2.104257,-1.283045 -3.258061,-2.055524 -1.848502,-1.237585 -3.960829,-2.587844 -5.383785,-4.207811 -0.792527,-0.902254 -0.495973,-2.794991 0.641194,-3.896715 1.276579,-1.236791 3.540615,-1.584584 5.10617,-0.524703 4.664059,3.157571 5.747774,3.955079 10.051627,7.61235 6.749976,5.735902 2.646902,11.170047 11.563572,14.008756 1.742431,0.302954 5.157799,0.604692 7.74337,-3.63762 2.913742,-4.780733 -0.830567,-8.981713 -3.69529,-9.41128 -0.83515,-0.12524 -1.52819,-0.0452 -2.36008,0.27248 -1.509875,0.576627 -3.595039,2.51585 -2.8075,5.1451 0.419991,1.401822 1.51113,2.154978 2.31921,2.39692 0.6843,0.20489 0.69877,0.23053 0.14155,0.25095 -0.34135,0.0125 -0.94211,-0.16716 -1.33501,-0.39925 -0.724546,-0.428004 -1.88081,-1.435614 -1.88081,-3.50753 0,-2.441663 1.267082,-3.482127 1.4932,-3.78399 0.264848,-0.353568 3.252448,-2.782252 6.87262,-0.93034 5.546491,2.837237 5.909544,10.455999 2.74695,13.5388 -5.40537,5.268978 -12.574987,3.610962 -16.029816,0.307785 -3.709118,-3.546305 -3.880494,-3.906872 -8.126423,-1.747691 -2.416116,1.228666 -6.647817,4.116166 -9.024661,4.53798 -0.193212,0.03429 -2.574808,-0.262328 -3.4807,-1.454815 -1.002473,-1.319621 -0.655207,-3.699945 -0.288144,-3.699945 z m 37.266371,7.414253 0.08,-1.38906 1.38906,-0.08 1.38906,-0.08 v 1.46903 1.46904 h -1.46903 -1.46904 z m 7.35602,-1.75284 c 3.9e-5,-0.56389 0.0755,-1.4026 0.1677,-1.86379 l 0.16771,-0.83852 1.61823,0.0778 1.61823,0.0779 0.0782,1.78594 0.0782,1.78593 h -1.86417 -1.86417 z M 57.181239,36.049674 c 3.207791,0.03284 4.751281,-2.923549 4.42027,-4.8828 -0.13408,-0.79363 -0.48197,-1.41633 -1.18284,-2.1172 -0.54609,-0.54609 -0.83744,-0.99289 -0.64745,-0.99289 0.19,0 0.69867,0.29721 1.13038,0.66047 0.43171,0.36326 0.98369,1.15725 1.22664,1.76442 0.30655,0.76616 0.38685,1.43437 0.26242,2.1838 -1.366173,8.229183 -17.942344,3.165198 -12.573545,-7.38682 2.191325,-4.306904 7.599559,-5.936989 11.192599,-5.078224 3.952708,0.862356 6.635034,3.354336 7.954584,7.846403 1.219038,4.149901 0.430388,3.529309 -0.40475,2.136387 -1.681781,-2.805035 -2.501874,-4.127347 -4.651302,-5.894468 -11.427054,-6.957526 -16.489106,11.437404 -6.727006,11.760922 z m 10.913532,1.016147 v -1.86529 h 1.59958 1.59959 l -0.0782,1.78594 -0.0782,1.78594 -1.52135,0.0794 -1.52135,0.0793 z m 6.00967,1.14577 c 0.144028,-0.02881 -0.18884,-0.76431 -0.18884,-1.46766 v -1.27882 h 1.33674 1.33675 l -0.08,1.38907 -0.08,1.38906 -1.06793,0.0786 c -0.58736,0.0432 -1.15291,-0.006 -1.25677,-0.11024 z M 71.754577,27.136734 v -1.45521 h 1.32291 1.32292 v 1.45521 1.45521 h -1.32292 -1.32291 z M 69.72445,22.353788 v -1.455207 h 1.45521 1.45521 l -0.004,0.859897 c -0.0022,0.472939 -0.0754,1.12778 -0.16315,1.45521 -0.13783,0.51431 -0.33534,0.59531 -1.45159,0.59531 h -1.29206 z m -7.067387,-5.077637 v -1.45521 h 1.45521 1.4552 v 1.45521 1.45521 h -1.4552 -1.45521 z m -18.138767,2.532331 0.08,-1.38906 h 1.32292 1.32291 l 0.08,1.38906 0.08,1.38906 h -1.48286 -1.48287 z m 6.996015,-3.06888 c -0.07023,-0.909508 -0.0775,-1.74294 -0.0162,-1.85208 0.0613,-0.10914 0.87839,-0.19844 1.81569,-0.19844 h 1.70418 v 1.85208 1.85208 h -1.68799 -1.68799 z"
       id="path7"
       style="fill:url(#mainGradient)"
       sodipodi:nodetypes="csssssssscssccssssssssssssccccccccccscccccccsscsscsscsssscccccccccccsccccccccscccccccsccccsscccccccccccccscccccccssccccccss" />
  </g>
  <!-- Text "mutflow" (scaled and centered below logo) -->
  <g
     transform="matrix(0.4526865,0,0,0.4526865,26.809372,49.677423)"
     id="g8">
    <path
       fill="url(#textGradient)"
       d="M 12.572069,5.3583968 C 11.672109,4.9584072 10.935616,4.1227404 10.671538,3.2019596 10.551831,2.7845764 10.453898,0.76182635 10.453898,-1.2930568 v -3.7361361 h 0.891863 0.89186 l 0.01587,2.2853961 c 0.0087,1.2569604 0.08734,3.07124325 0.174673,4.0317313 0.13535,1.4883083 0.239006,1.806825 0.701581,2.1557463 1.16718,0.8804062 3.013607,0.715548 4.094755,-0.3655981 l 0.58726,-0.5872635 v -3.7728281 -3.7728274 l 0.947605,0.068597 0.947603,0.068597 0.05985,5.18394275 0.05985,5.18394445 h -0.89597 c -0.789993,0 -0.895972,-0.061512 -0.895972,-0.5202519 0,-0.7743183 -0.187885,-0.8287573 -0.824407,-0.2388482 -1.020172,0.9454566 -3.2807,1.2706896 -4.638252,0.6673215 z M 25.026719,5.2444569 C 24.641548,5.0095871 24.24021,4.683873 24.134857,4.5206497 24.029501,4.3574184 23.893137,2.5181828 23.831822,0.43345975 l -0.111488,-3.79041685 -0.947603,-0.068597 c -0.914696,-0.066157 -0.947603,-0.094772 -0.947603,-0.8232957 0,-0.7285351 0.0329,-0.7571196 0.947603,-0.8233043 l 0.947603,-0.068597 0.06642,-1.2666859 c 0.06362,-1.213318 0.09531,-1.2730218 0.75249,-1.4173618 0.873919,-0.19195 1.068451,0.102675 1.072892,1.6249528 l 0.0034,1.1705754 h 1.449276 1.449274 v 0.7803769 0.7803785 H 27.064767 25.61549 v 3.42865855 c 0,3.84435645 0.05672,3.99417975 1.508757,3.98440415 0.45781,-0.00331 0.974425,-0.041882 1.148032,-0.086148 0.204643,-0.052249 0.372251,0.1795883 0.476592,0.6591471 0.141745,0.6514766 0.09573,0.7644834 -0.385908,0.9476036 -0.923107,0.3509603 -2.57828,0.2414262 -3.336298,-0.2207804 z M 47.440532,5.3655385 C 45.31964,4.6076185 44.120616,2.961422 43.957849,0.58400175 c -0.07964,-1.16272921 -0.0043,-1.71415205 0.345971,-2.52054385 1.832072,-4.2224519 7.774963,-4.4249459 9.901198,-0.3373687 0.599188,1.151901 0.648057,3.6213692 0.09634,4.8681079 -1.069788,2.4174469 -4.253018,3.70327 -6.860826,2.7713414 z m 3.771985,-1.8555663 c 1.553231,-1.1596454 2.032282,-3.16065525 1.204628,-5.0316933 -1.174307,-2.6547193 -4.842369,-2.7247404 -6.198482,-0.1183237 -0.450898,0.86661144 -0.400032,3.0295461 0.09343,3.9721855 0.849143,1.6221388 3.463656,2.2505421 4.900433,1.1778317 z M -8.7211265,0.21048735 V -5.0291929 h 0.8918618 c 0.842313,0 0.891862,0.037163 0.891862,0.6688954 0,0.6991324 0.308569,0.9025194 0.522695,0.3445228 0.2102205,-0.547825 1.842838,-1.2363893 2.9315483,-1.2363893 1.3087804,0 2.3639262,0.4464049 2.96528167,1.2545243 l 0.4767549,0.6406826 0.5094961,-0.6088446 c 1.09896703,-1.3132537 3.58302483,-1.6883654 5.17205703,-0.781018 1.553133,0.8868526 1.7916283,1.678017 1.8808338,6.2393625 l 0.077408,3.9576333 H 6.57367 5.5486688 V 1.8716592 c 0,-3.7812808 -0.1802811,-4.6169809 -1.1024762,-5.1105188 -0.572872,-0.3065928 -2.085056,-0.2915254 -2.7858006,0.02773 -1.04799102,0.4775007 -1.18606603,0.9793398 -1.35959673,4.941514 L 0.13788367,5.4501567 H -0.72417053 -1.5862248 V 1.8042062 c 0,-3.4119992 -0.03219,-3.693682 -0.5016714,-4.3896459 -0.6716341,-0.9956375 -1.697474,-1.2633732 -2.9735162,-0.7760451 -1.5511393,0.5923863 -1.6530163,0.9082401 -1.6530163,5.1248697 v 3.6867718 h -1.003344 -1.0033438 z M 32.081546,0.99087275 V -3.4684375 h -0.969903 c -0.950173,0 -0.969445,-0.014744 -0.947603,-0.724642 0.02123,-0.6889939 0.06893,-0.7280027 0.969902,-0.7931949 l 0.947604,-0.068597 8.33e-4,-1.1577486 c 0.0016,-1.8941128 0.933708,-2.9869228 2.861418,-3.3538676 1.032919,-0.19663 2.775648,0.2590638 2.612889,0.6832128 -0.06817,0.177693 -0.123981,0.508285 -0.123981,0.734654 0,0.364803 -0.137224,0.397425 -1.207225,0.286989 -1.087129,-0.112208 -1.264569,-0.06724 -1.783725,0.4519078 -0.430015,0.430015 -0.576502,0.805692 -0.576502,1.4785 v 0.901996 h 1.560764 1.560754 v 0.7803782 0.7803772 H 35.426017 33.865253 V 0.99083835 5.4501404 h -0.891854 -0.891858 z m 7.357858,-2.89855595 v -7.3578576 h 1.00334 1.003349 v 7.3578576 7.3578593 h -1.003349 -1.00334 z m 19.95362,7.0791521 c -1.368762,-3.8428151 -3.454185,-9.8963704 -3.454185,-10.0267951 0,-0.095632 0.451505,-0.1738667 1.00335,-0.1738667 0.570737,0 1.00334,0.1039771 1.00334,0.2411642 0,0.4278324 2.330142,7.56262 2.469863,7.56262 0.07424,0 0.618942,-1.4297652 1.210368,-3.17725605 1.611006,-4.75996985 1.561934,-4.66591625 2.391846,-4.58427475 0.703372,0.069179 0.704198,0.070873 1.993097,3.9711238 0.709185,2.1460387 1.293837,3.9520626 1.299204,4.013378 0.0051,0.061347 0.615858,-1.7196225 1.35661,-3.95764136 l 1.346835,-4.06911384 h 0.979872 0.979871 l -0.791215,2.1739068 c -0.435173,1.1956532 -1.268194,3.52843495 -1.851152,5.1839518 l -1.059936,3.0100284 -0.884367,0.06649 -0.884367,0.066489 -1.179449,-3.6339596 c -0.648688,-1.99868265 -1.255621,-3.7153379 -1.348739,-3.814802 -0.09311,-0.099463 -0.760153,1.53057715 -1.482317,3.6223116 l -1.313026,3.8031491 -0.843116,8.423e-4 C 59.861795,5.4497122 59.448787,5.3279546 59.393024,5.171384 Z"
       id="path8"
       style="fill:url(#textGradient);stroke-width:0.842704"
       sodipodi:nodetypes="cssccccssscccccccssscccssccsccssccccccccsccssccsccssssssssssccssssscssscccsscscccssssccccccsccccssssssccccccccccccccccccccccssssssscscccsscccssscccc" />
  </g>
</svg>
