<?xml version="1.0" encoding="UTF-8" standalone="no"?>
<svg
   width="94.001488mm"
   height="63.745571mm"
   viewBox="0 0 94.001488 63.745571"
   version="1.1"
   id="svg8"
   xmlns="http://www.w3.org/2000/svg"
   xmlns:svg="http://www.w3.org/2000/svg">
  <defs
     id="defs7">
    <!-- Main gradient: orange to magenta to purple (diagonal) -->
    <linearGradient
       id="mainGradient"
       x1="19.645018"
       y1="195.81528"
       x2="115.68492"
       y2="99.775383"
       gradientTransform="matrix(1.506613,0,0,0.66374047,-32.643472,-64.174746)"
       gradientUnits="userSpaceOnUse">
      <stop
         offset="0%"
         style="stop-color:#F5A623"
         id="stop1" />
      <stop
         offset="40%"
         style="stop-color:#E91E63"
         id="stop2" />
      <stop
         offset="100%"
         style="stop-color:#7E57C2"
         id="stop3" />
    </linearGradient>
    <!-- Text gradient: horizontal -->
    <linearGradient
       id="textGradient"
       x1="24.067528"
       y1="447.08115"
       x2="65.743919"
       y2="447.08115"
       gradientTransform="matrix(1.40449,0,0,0.26605048,-28.180083,-121.35834)"
       gradientUnits="userSpaceOnUse">
      <stop
         offset="0%"
         style="stop-color:#F5A623"
         id="stop4" />
      <stop
         offset="50%"
         style="stop-color:#E91E63"
         id="stop5" />
      <stop
         offset="100%"
         style="stop-color:#7E57C2"
         id="stop6" />
    </linearGradient>
  </defs>
  <!-- Logo shape (scaled and centered) -->
  <g
     transform="translate(-4.2071048,1.6669158)"
     id="g7">
    <path
       fill="url(#mainGradient)"
       d="m 8.935775,61.943234 c -0.364745,-0.11942 -1.03168,-0.4077 -1.482079,-0.64061 -0.450399,-0.23291 -1.179141,-0.83376 -1.619427,-1.33521 -0.440285,-0.50146 -1.010295,-1.46104 -1.266688,-2.13239 -0.331988,-0.8693 -0.424007,-1.62916 -0.319691,-2.63989 0.08056,-0.78058 0.384135,-1.88508 0.674603,-2.45445 0.348982,-0.68406 1.635564,-1.94222 3.792914,-3.70913 1.795634,-1.47066 5.799439,-4.74071 8.897345,-7.26678 3.09791,-2.52607 6.14743,-5.00958 6.77672,-5.5189 0.6293,-0.509328 2.26183,-1.836688 3.62786,-2.949698 1.36603,-1.11301 2.75237,-2.31214 3.08075,-2.66473 l 0.59705,-0.64109 -6.1533,-5.02603 C 22.157513,22.200006 16.59056,17.696409 13.170821,14.956339 9.751081,12.216269 6.610213,9.6644685 6.191112,9.2856585 c -0.4191,-0.37881 -1.005337,-1.22452 -1.30275,-1.87936 -0.352342,-0.77579 -0.540693,-1.74375 -0.540583,-2.77813 1.05e-4,-1.00127 0.17458,-1.92947 0.472476,-2.51354 0.259769,-0.50932 0.845932,-1.32343 1.302583,-1.80912 0.456651,-0.4857 1.306525,-1.13079 1.888608,-1.43355 0.74049,-0.38514 1.535097,-0.54689 2.645833,-0.53857 0.873125,0.007 2.004219,0.18856 2.513542,0.4045 0.509322,0.21594 2.831041,1.93661 5.159374,3.82371 2.328337,1.88711 5.662087,4.58674 7.408337,5.9992 1.439811,0.6831221 13.29624,9.5675405 16.141597,12.4427425 3.003419,3.034922 4.168043,5.915855 4.168043,5.915855 0.39234,1.15663 0.839946,2.324498 1.104196,3.831344 l 0.3875,2.209656 c 0.827568,2.642379 2.132823,4.797988 4.547611,5.959898 0.810655,0.37869 2.08754,0.6318 3.32977,0.71184 1.4058,0.0906 2.45092,2.2e-4 3.48951,-0.30171 0.81545,-0.23706 1.6438,-0.57864 1.84077,-0.75907 0.19697,-0.18043 0.59123,-0.45785 0.87612,-0.61649 0.2849,-0.15865 0.97653,-1.0408 1.53697,-1.96035 0.97351,-1.59729 1.0147,-1.75679 0.92294,-3.57379 -0.0784,-1.55271 -0.2427,-2.1391 -0.89492,-3.19403 -0.43938,-0.71069 -1.19085,-1.55631 -1.66993,-1.87916 -0.47907,-0.32285 -1.4031,-0.66679 -2.05338,-0.7643 -0.83515,-0.12524 -1.52819,-0.0452 -2.36008,0.27248 -0.66611,0.25439 -1.52295,0.86858 -1.9724,1.41384 -0.43706,0.53023 -0.86999,1.36561 -0.96206,1.8564 -0.0921,0.49079 -0.0349,1.33448 0.12696,1.87486 0.1619,0.54038 0.57847,1.2494 0.9257,1.57561 0.34723,0.32621 0.97431,0.6958 1.39351,0.82131 0.6843,0.20489 0.69877,0.23053 0.14155,0.25095 -0.34135,0.0125 -0.94211,-0.16716 -1.33501,-0.39925 -0.39291,-0.2321 -0.97683,-0.80501 -1.2976,-1.27314 -0.41832,-0.61051 -0.58321,-1.24224 -0.58321,-2.23439 0,-0.83532 0.19845,-1.77206 0.50101,-2.36487 0.27556,-0.53991 0.72204,-1.17851 0.99219,-1.41912 0.27014,-0.24061 1.00405,-0.70269 1.6309,-1.02685 0.77485,-0.40069 1.58963,-0.58534 2.545,-0.57676 0.95781,0.009 1.81648,0.22298 2.69672,0.67327 0.71031,0.36335 1.73173,1.1174 2.26983,1.67568 0.53809,0.55827 1.27382,1.66989 1.63493,2.47025 0.36112,0.80037 0.68584,1.93146 0.7216,2.51355 0.097,1.36118 0.182556,2.153368 -0.29219,3.48198 -0.05102,0.14278 -0.13532,0.68039 -0.3007,1.17505 -0.16538,0.49466 -0.74432,1.49469 -1.28652,2.22229 -0.5422,0.72761 -1.32871,1.66295 -1.74779,2.07855 -0.41908,0.4156 -1.30917,1.03293 -1.97798,1.37184 -0.66881,0.33891 -1.97941,0.88374 -2.91245,1.21074 -3.723659,1.30502 -11.078773,-3.36159 -14.816217,-2.30406 -0.87313,0.24705 -2.2913,0.67791 -3.15148,0.95746 -0.86019,0.27954 -2.82472,1.17397 -4.36563,1.98762 -1.5409,0.81364 -2.98024,1.62876 -3.19852,1.81137 -0.21828,0.18261 -1.05172,0.70331 -1.85208,1.1571 -0.80037,0.45379 -2.60275,1.75219 -4.00529,2.88533 -1.40255,1.13314 -4.66692,3.83594 -7.25415,6.00622 -2.587237,2.17028 -5.216474,4.23235 -5.84275,4.58238 -0.660276,0.36904 -1.725518,0.68123 -2.535435,0.74306 -0.768213,0.0587 -1.695178,0.009 -2.059922,-0.1105 z m 79.267323,-13.24898 v -1.5875 h 1.45521 1.45521 v 1.5875 1.5875 h -1.45521 -1.45521 z m -19.52685,-5.88698 0.08,-1.38906 1.38906,-0.08 1.38906,-0.08 v 1.46903 1.46904 h -1.46903 -1.46904 z m 8.63776,3.4095 v -2.11667 h 2.12697 2.12697 l -0.0452,2.11667 -0.0452,2.11667 h -2.08178 -2.08179 z m -2.86924,-5.16234 c 0,-0.56389 0.0755,-1.4026 0.1677,-1.86379 l 0.16771,-0.83852 1.61823,0.0778 1.61823,0.0779 0.0782,1.78594 0.0782,1.78593 h -1.86417 -1.86417 z M 95.158946,26.089665 c -0.131933,-0.99457 -0.0874,-1.42564 0.16435,-1.59029 0.18994,-0.12422 0.88112,-0.194836 1.535972,-0.15694 l 1.19062,0.0689 0.0794,1.52136 0.0793,1.52135 h -1.43432 -1.434332 z M 63.881209,23.017974 c -1.69291,-0.20584 -2.94028,-0.20602 -4.41696,-6.3e-4 -1.1318,0.15742 -2.65927,0.56275 -3.39438,0.90074 -0.73511,0.338 -1.72937,0.94673 -2.20946,1.35275 -0.4801,0.40601 -1.1737,1.33179 -1.54133,2.05728 -0.495825,0.97845 -0.670875,1.74308 -0.677905,2.96107 -0.007,1.14274 0.15301,1.95801 0.524915,2.68136 0.29391,0.57165 0.87271,1.35921 1.28622,1.75013 0.41351,0.39093 1.10902,0.84668 1.54558,1.01278 0.43657,0.1661 1.41907,0.3084 2.18335,0.31622 1.06466,0.0109 1.62945,-0.14451 2.41534,-0.66459 0.61615,-0.40774 1.25918,-1.161 1.61031,-1.88636 0.46234,-0.95506 0.54485,-1.44264 0.39462,-2.33185 -0.13408,-0.79363 -0.48197,-1.41633 -1.18284,-2.1172 -0.54609,-0.54609 -0.83744,-0.99289 -0.64745,-0.99289 0.19,0 0.69867,0.29721 1.13038,0.66047 0.43171,0.36326 0.98369,1.15725 1.22664,1.76442 0.30655,0.76616 0.38685,1.43437 0.26242,2.1838 -0.0986,0.59392 -0.33318,1.37751 -0.52126,1.74131 -0.18809,0.3638 -0.68002,0.97529 -1.0932,1.35885 -0.41317,0.38357 -1.16794,0.91534 -1.67726,1.18171 -0.62164,0.32511 -1.49138,0.48403 -2.64584,0.48344 -1.27938,-6.4e-4 -2.02468,-0.15811 -2.91041,-0.61492 -0.65485,-0.33772 -1.588215,-0.98816 -2.074155,-1.44542 -1.7627,-1.627086 -2.272472,-3.681506 -2.28581,-5.99075 -0.002,-2.04202 0.11724,-2.81134 0.63439,-4.10104 0.44924,-1.12037 1.11049,-2.06181 2.247205,-3.19943 1.11224,-1.113117 2.22472,-1.902447 3.59503,-2.550777 1.09141,-0.51637 2.63922,-1.09511 3.43959,-1.28609 0.80036,-0.19098 2.5863,-0.34177 3.96875,-0.3351 1.38244,0.007 3.20639,0.16008 4.05322,0.34089 0.846819,0.18082 2.385992,0.61169 3.365109,1.08151 4.99772,2.398106 7.082358,4.158969 9.542914,6.378137 2.070832,1.867677 1.388226,3.685722 -0.208084,3.386586 -8.042378,-1.507079 -9.540812,-5.298406 -15.939639,-6.076406 z m 16.648969,14.96068 v -1.45521 h 1.32292 1.32292 v 1.45521 1.45521 h -1.32292 -1.32292 z m 7.36717,3.07878 v -1.7198 h 1.5875 1.5875 v 1.7198 1.71979 h -1.5875 -1.5875 z m -17.68591,-6.10828 v -1.86529 h 1.59958 1.59959 l -0.0782,1.78594 -0.0782,1.78594 -1.52135,0.0794 -1.52135,0.0793 z m 6.00967,1.14577 c -0.10386,-0.10386 -0.18884,-0.76431 -0.18884,-1.46766 v -1.27882 h 1.33674 1.33675 l -0.08,1.38907 -0.08,1.38906 -1.06793,0.0786 c -0.58736,0.0432 -1.15291,-0.006 -1.25677,-0.11024 z m -3.62842,-5.5246 v -1.45521 h 1.32291 1.32292 v 1.45521 1.45521 h -1.32292 -1.32291 z M 92.008566,16.958935 c 0,-0.13717 -0.17638,-0.677437 -0.17638,-1.289837 0,-0.6124 0.0703,-1.46495 0.15622,-1.89456 0.15496,-0.77482 0.17199,-0.781528 2.11666,-0.83172 l 1.96045,-0.0506 v 2.12156 2.121557 h -1.94028 c -1.06715,0 -2.11667,-0.0392 -2.11667,-0.17639 z m -1.48896,17.41343 v -2.48639 l 2.3151,-0.11151 c 1.27331,-0.0613 2.4044,-0.0665 2.51354,-0.0115 0.10914,0.055 0.19844,1.22404 0.19844,2.5979 v 2.49793 h -2.51354 -2.51354 z M 71.005218,13.533947 v -2.24896 h 2.24896 2.24896 v 2.24896 2.24895 h -2.24896 -2.24896 z m 10.05417,-3.7041705 v -1.455207 h 1.45521 1.45521 l -0.004,0.859897 c -0.002,0.47294 -0.0754,1.1277805 -0.16315,1.4552105 -0.13783,0.51431 -0.33534,0.59531 -1.45159,0.59531 h -1.29206 z m 6.4371,19.5693805 c -0.097,-0.097 -0.17638,-0.75186 -0.17638,-1.45521 V 26.66513 l 1.52135,-3.6e-4 1.52135,-3.6e-4 -0.0906,1.455567 -0.0906,1.45556 h -1.25433 c -0.68989,0 -1.33371,-0.0794 -1.43073,-0.17638 z M 76.826058,6.9193595 v -1.45521 h 1.45521 1.4552 v 1.45521 1.45521 h -1.4552 -1.45521 z m 3.98251,11.5883675 v -3.175 h 3.3073 3.30729 v 3.175 3.175 h -3.30729 -3.3073 z m -31.57739,-2.505803 0.08,-1.38906 h 1.32292 1.32291 l 0.08,1.38906 0.08,1.38906 h -1.48286 -1.48287 z m 8.718029,-3.522042 c -0.0702,-0.90951 -0.0775,-1.74294 -0.0162,-1.85208 0.0613,-0.10914 0.87839,-0.19844 1.81569,-0.19844 h 1.70418 v 1.85208 1.85208 h -1.68799 -1.68799 z"
       id="path7"
       style="fill:url(#mainGradient)" />
  </g>
  <!-- Text "mutflow" (scaled and centered below logo) -->
  <g
     transform="translate(18.760095,52.657683)"
     id="g8">
    <path
       fill="url(#textGradient)"
       d="M 21.068204,8.4482358 C 20.415391,8.1580908 19.881152,7.5519138 19.689595,6.8839968 19.602766,6.5812348 19.531723,5.1139698 19.531723,3.6233962 V 0.91327292 h 0.64694 0.646939 l 0.01151,1.65778358 c 0.0063,0.9117755 0.06335,2.2278223 0.126705,2.9245423 0.09818,1.079591 0.17337,1.310637 0.508914,1.563738 0.84665,0.63863 2.186013,0.519045 2.970258,-0.265198 l 0.425988,-0.42599 V 3.6314101 0.89467162 l 0.687374,0.049758 0.687373,0.049758 0.04341,3.76033518 0.04341,3.760336 h -0.64992 c -0.573046,0 -0.649921,-0.04462 -0.649921,-0.377381 0,-0.561676 -0.136288,-0.601165 -0.59801,-0.173256 -0.740009,0.685816 -2.379753,0.921734 -3.364496,0.484062 z m 9.03437,-0.08265 c -0.279396,-0.17037 -0.570519,-0.406637 -0.64694,-0.525036 -0.07642,-0.118405 -0.175339,-1.452552 -0.219816,-2.964771 l -0.08087,-2.7494969 -0.687374,-0.049758 c -0.663503,-0.047986 -0.687373,-0.068745 -0.687373,-0.5972038 0,-0.52846518 0.02387,-0.54919988 0.687373,-0.59720988 l 0.687374,-0.049758 0.04818,-0.9188296 c 0.04615,-0.8801172 0.06914,-0.92342652 0.545843,-1.02812682 0.633924,-0.1392378 0.775034,0.074485 0.778255,1.17870992 l 0.0025,0.849113 h 1.051278 1.051276 V 1.4792895 2.0453608 h -1.051309 -1.051278 v 2.487085 c 0,2.788624 0.04115,2.897303 1.094424,2.890212 0.332087,-0.0024 0.706829,-0.03038 0.832761,-0.06249 0.148444,-0.0379 0.270023,0.13027 0.34571,0.478133 0.10282,0.472569 0.06944,0.554542 -0.27993,0.687374 -0.669605,0.25458 -1.870236,0.175126 -2.420088,-0.16015 z m 16.25856,0.08783 c -1.538455,-0.549781 -2.408205,-1.743901 -2.526274,-3.468437 -0.05777,-0.843422 -0.0031,-1.2434138 0.250961,-1.8283553 1.328951,-3.06288778 5.639813,-3.20977258 7.182144,-0.2447205 0.43464,0.835567 0.470088,2.6268728 0.06988,3.5312338 -0.776004,1.753571 -3.085059,2.686283 -4.976713,2.010279 z m 2.736127,-1.345993 c 1.126684,-0.841185 1.474179,-2.29268 0.873815,-3.6498959 -0.851821,-1.9256839 -3.512565,-1.9764753 -4.496264,-0.08583 -0.327072,0.6286237 -0.290175,2.1975759 0.06777,2.8813489 0.615952,1.176669 2.512471,1.632501 3.554682,0.854377 z M 5.6225192,4.7140388 V 0.91327292 h 0.64694 c 0.610998,0 0.64694,0.026957 0.64694,0.48520478 0,0.5071376 0.22383,0.6546704 0.379153,0.2499103 0.15249,-0.397382 1.33676,-0.89685408 2.12649,-0.89685408 0.9493648,0 1.7147478,0.32381418 2.1509598,0.91000888 L 11.918831,2.1262819 12.28841,1.684637 c 0.79717,-0.95260908 2.599059,-1.22470888 3.751713,-0.5665358 1.126614,0.6433066 1.299614,1.2172023 1.364322,4.5259166 l 0.05615,2.870793 h -0.743517 -0.743517 v -2.595789 c 0,-2.7428698 -0.130773,-3.3490717 -0.799716,-3.7070749 -0.41555,-0.2223965 -1.51246,-0.2114668 -2.020767,0.020111 -0.760193,0.3463705 -0.86035,0.7103949 -0.986226,3.5844819 l -0.118173,2.698253 h -0.625318 -0.625318 v -2.644704 c 0,-2.4750003 -0.02335,-2.6793273 -0.363903,-3.1841665 C 9.9469492,1.9637053 9.2028242,1.769495 8.2772072,2.1229931 7.1520402,2.5526996 7.0781402,2.7818141 7.0781402,5.8404778 v 2.674315 H 6.3503332 5.6225262 Z M 35.220013,5.2801158 V 2.0454154 h -0.703549 c -0.689238,0 -0.703218,-0.010697 -0.687374,-0.5256411 0.0154,-0.4997838 0.05,-0.52808008 0.703549,-0.57536878 l 0.687374,-0.049758 6.05e-4,-0.8398093 c 0.0012,-1.37395332 0.677294,-2.16665722 2.075619,-2.43283372 0.74926,-0.1426303 2.013403,0.1879202 1.89534,0.4955905 -0.04945,0.1288948 -0.08993,0.3687006 -0.08993,0.5329031 0,0.2646238 -0.09954,0.2882865 -0.875698,0.2081781 -0.788583,-0.081386 -0.917295,-0.04878 -1.293881,0.32780582 -0.311925,0.3119248 -0.418184,0.5844342 -0.418184,1.0724753 v 0.6542915 h 1.132149 1.132142 V 1.47932 2.0453913 h -1.132142 -1.132149 v 3.2347005 3.234694 H 35.86695 35.220013 Z m 5.337252,-2.1025579 v -5.3372528 h 0.727805 0.72781 v 5.3372528 5.3372529 h -0.72781 -0.727805 z m 14.473982,5.1350839 c -0.992874,-2.787506 -2.505601,-7.1786412 -2.505601,-7.2732493 0,-0.069368 0.327513,-0.12611958 0.727811,-0.12611958 0.414002,0 0.727804,0.075426 0.727804,0.17493658 0,0.3103416 1.690242,5.4857823 1.791593,5.4857823 0.05385,0 0.448968,-1.037125 0.877978,-2.304722 1.168593,-3.45279328 1.132998,-3.38456818 1.735,-3.32534718 0.510213,0.050186 0.510812,0.051409 1.445755,2.88057908 0.51443,1.5566961 0.938525,2.8667521 0.942419,2.9112291 0.0037,0.0445 0.446731,-1.247382 0.984059,-2.8707989 l 0.976969,-2.95165898 h 0.71078 0.71078 L 63.582662,2.4901839 c -0.315666,0.8673048 -0.919924,2.5594609 -1.342791,3.7603419 l -0.768857,2.183418 -0.641504,0.04823 -0.641503,0.04823 -0.85555,-2.636006 c -0.470546,-1.449807 -0.910804,-2.6950365 -0.97835,-2.767186 -0.06754,-0.07215 -0.551401,1.110252 -1.075245,2.627557 l -0.952444,2.758733 -0.611581,6.11e-4 c -0.343552,3.61e-4 -0.643141,-0.08796 -0.68359,-0.201533 z"
       id="path8"
       style="fill:url(#textGradient);stroke-width:0.611282" />
  </g>
</svg>
