<?xml version="1.0" encoding="UTF-8" standalone="no"?>
<svg
   width="160mm"
   height="80.012634mm"
   viewBox="0 0 160 80.012634"
   version="1.1"
   id="svg8"
   xmlns="http://www.w3.org/2000/svg"
   xmlns:svg="http://www.w3.org/2000/svg">
  <defs
     id="defs7">
    <!-- Main gradient: orange to magenta to purple (diagonal) -->
    <linearGradient
       id="mainGradient"
       x1="19.645018"
       y1="195.81528"
       x2="115.68492"
       y2="99.775383"
       gradientTransform="scale(1.506613,0.66374047)"
       gradientUnits="userSpaceOnUse">
      <stop
         offset="0%"
         style="stop-color:#F5A623"
         id="stop1" />
      <stop
         offset="40%"
         style="stop-color:#E91E63"
         id="stop2" />
      <stop
         offset="100%"
         style="stop-color:#7E57C2"
         id="stop3" />
    </linearGradient>
    <!-- Text gradient: horizontal -->
    <linearGradient
       id="textGradient"
       x1="24.067528"
       y1="447.08115"
       x2="65.743919"
       y2="447.08115"
       gradientTransform="scale(2.2976152,0.43523388)"
       gradientUnits="userSpaceOnUse">
      <stop
         offset="0%"
         style="stop-color:#F5A623"
         id="stop4" />
      <stop
         offset="50%"
         style="stop-color:#E91E63"
         id="stop5" />
      <stop
         offset="100%"
         style="stop-color:#7E57C2"
         id="stop6" />
    </linearGradient>
  </defs>
  <!-- Logo shape (scaled and centered) -->
  <g
     transform="translate(7.5,5)"
          id="g7">
    <path
       fill="url(#mainGradient)"
       d="m 34.326109,129.83511 c -0.364745,-0.11942 -1.03168,-0.4077 -1.482079,-0.64061 -0.450399,-0.23291 -1.179141,-0.83376 -1.619427,-1.33521 -0.440285,-0.50146 -1.010295,-1.46104 -1.266688,-2.13239 -0.331988,-0.8693 -0.424007,-1.62916 -0.319691,-2.63989 0.08056,-0.78058 0.384135,-1.88508 0.674603,-2.45445 0.348982,-0.68406 1.635564,-1.94222 3.792914,-3.70913 1.795634,-1.47066 5.799439,-4.74071 8.897345,-7.26678 3.09791,-2.52607 6.14743,-5.00958 6.77672,-5.5189 0.6293,-0.50933 2.26183,-1.83669 3.62786,-2.9497 1.36603,-1.11301 2.75237,-2.31214 3.08075,-2.66473 l 0.59705,-0.64109 -6.1533,-5.02603 c -3.38432,-2.76432 -8.951272,-7.267917 -12.371011,-10.007987 -3.41974,-2.74007 -6.560608,-5.29187 -6.979709,-5.67068 -0.4191,-0.37881 -1.005337,-1.22452 -1.30275,-1.87936 -0.352342,-0.77579 -0.540693,-1.74375 -0.540583,-2.77813 1.05e-4,-1.00127 0.17458,-1.92947 0.472476,-2.51354 0.259769,-0.50932 0.845932,-1.32343 1.302583,-1.80912 0.456651,-0.4857 1.306525,-1.13079 1.888608,-1.43355 0.74049,-0.38514 1.535097,-0.54689 2.645833,-0.53857 0.873125,0.007 2.004219,0.18856 2.513542,0.4045 0.509322,0.21594 2.831041,1.93661 5.159374,3.82371 2.328337,1.88711 5.662087,4.58674 7.408337,5.9992 2.20601,1.78434 3.98248,2.96404 5.82083,3.86543 1.45521,0.71353 3.24114,1.49352 3.96875,1.73332 0.7276,0.2398 2.33495,0.6795 3.57187,0.9771 1.91002,0.45955 3.48118,0.56578 10.42493,0.70485 l 8.17598,0.16375 -1.10112,1.19063 c -0.60561,0.654837 -1.44877,1.904997 -1.87368,2.778117 -0.42491,0.87313 -0.91819,2.37856 -1.09616,3.3454 -0.31917,1.73392 -0.33657,1.76005 -1.2752,1.91532 -0.52339,0.0866 -2.2726,0.15873 -3.88712,0.16033 l -2.9355,0.003 0.51606,1.52135 c 0.39234,1.15663 0.48871,2.00301 0.40197,3.53039 l -0.11409,2.00902 4.40741,-0.0246 4.40741,-0.0247 1.43341,1.10557 c 0.78838,0.60806 2.02872,1.3677 2.756335,1.68809 0.81887,0.36058 2.08754,0.6318 3.32977,0.71184 1.4058,0.0906 2.45092,2.2e-4 3.48951,-0.30171 0.81545,-0.23706 1.6438,-0.57864 1.84077,-0.75907 0.19697,-0.18043 0.59123,-0.45785 0.87612,-0.61649 0.2849,-0.15865 0.97653,-1.0408 1.53697,-1.96035 0.97351,-1.59729 1.0147,-1.75679 0.92294,-3.57379 -0.0784,-1.55271 -0.2427,-2.1391 -0.89492,-3.19403 -0.43938,-0.71069 -1.19085,-1.55631 -1.66993,-1.87916 -0.47907,-0.32285 -1.4031,-0.66679 -2.05338,-0.7643 -0.83515,-0.12524 -1.52819,-0.0452 -2.36008,0.27248 -0.66611,0.25439 -1.52295,0.86858 -1.9724,1.41384 -0.43706,0.53023 -0.86999,1.36561 -0.96206,1.8564 -0.0921,0.49079 -0.0349,1.33448 0.12696,1.87486 0.1619,0.54038 0.57847,1.2494 0.9257,1.57561 0.34723,0.32621 0.97431,0.6958 1.39351,0.82131 0.6843,0.20489 0.69877,0.23053 0.14155,0.25095 -0.34135,0.0125 -0.94211,-0.16716 -1.33501,-0.39925 -0.39291,-0.2321 -0.97683,-0.80501 -1.2976,-1.27314 -0.41832,-0.61051 -0.58321,-1.24224 -0.58321,-2.23439 0,-0.83532 0.19845,-1.77206 0.50101,-2.36487 0.27556,-0.53991 0.72204,-1.17851 0.99219,-1.41912 0.27014,-0.24061 1.00405,-0.70269 1.6309,-1.02685 0.77485,-0.40069 1.58963,-0.58534 2.545,-0.57676 0.95781,0.009 1.81648,0.22298 2.69672,0.67327 0.71031,0.36335 1.73173,1.1174 2.26983,1.67568 0.53809,0.55827 1.27382,1.66989 1.63493,2.47025 0.36112,0.80037 0.68584,1.93146 0.7216,2.51355 0.097,1.36118 0.182556,2.153368 -0.29219,3.48198 -0.05102,0.14278 -0.13532,0.68039 -0.3007,1.17505 -0.16538,0.49466 -0.74432,1.49469 -1.28652,2.22229 -0.5422,0.72761 -1.32871,1.66295 -1.74779,2.07855 -0.41908,0.4156 -1.30917,1.03293 -1.97798,1.37184 -0.66881,0.33891 -1.97941,0.88374 -2.91245,1.21074 -1.58817,0.5566 -2.29591,0.60633 -11.089155,0.77921 -7.62242,0.14986 -9.69191,0.26933 -10.9802,0.63386 -0.87313,0.24705 -2.2913,0.67791 -3.15148,0.95746 -0.86019,0.27954 -2.82472,1.17397 -4.36563,1.98762 -1.5409,0.81364 -2.98024,1.62876 -3.19852,1.81137 -0.21828,0.18261 -1.05172,0.70331 -1.85208,1.1571 -0.80037,0.45379 -2.60275,1.75219 -4.00529,2.88533 -1.40255,1.13314 -4.66692,3.83594 -7.25415,6.00622 -2.587237,2.17028 -5.216474,4.23235 -5.84275,4.58238 -0.660276,0.36904 -1.725518,0.68123 -2.535435,0.74306 -0.768213,0.0587 -1.695178,0.009 -2.059922,-0.1105 z M 95.181991,91.57004 c 0,-0.0728 -0.0595,-0.13229 -0.13229,-0.13229 -0.0728,0 -0.13229,0.0595 -0.13229,0.13229 0,0.0728 0.0595,0.13229 0.13229,0.13229 0.0728,0 0.13229,-0.0595 0.13229,-0.13229 z m -0.52917,-0.79375 c 0,-0.0728 -0.0595,-0.13229 -0.13229,-0.13229 -0.0728,0 -0.13229,0.0595 -0.13229,0.13229 0,0.0728 0.0595,0.13229 0.13229,0.13229 0.0728,0 0.13229,-0.0595 0.13229,-0.13229 z M 120.84657,112.869 v -1.5875 h 1.45521 1.45521 v 1.5875 1.5875 h -1.45521 -1.45521 z m -19.52685,-5.88698 0.08,-1.38906 1.38906,-0.08 1.38906,-0.08 v 1.46903 1.46904 h -1.46903 -1.46904 z m 30.90393,-1.78594 v -2.11667 h 2.12697 2.12697 l -0.0452,2.11667 -0.0452,2.11667 h -2.08178 -2.08179 z m -25.13541,0.0331 c 0,-0.56389 0.0755,-1.4026 0.1677,-1.86379 l 0.16771,-0.83852 1.61823,0.0778 1.61823,0.0779 0.0782,1.78594 0.0782,1.78593 h -1.86417 -1.86417 z m 58.09551,-1.39748 c -0.13194,-0.99457 -0.0874,-1.42564 0.16435,-1.59029 0.18994,-0.12422 0.88112,-0.19485 1.53597,-0.15694 l 1.19062,0.0689 0.0794,1.52136 0.0793,1.52135 h -1.43432 -1.43433 z m -39.83926,-0.25313 c 0,-0.81896 -0.007,-0.82281 -1.12448,-0.6569 -0.6873,0.10201 -1.7191,0.0113 -2.6539,-0.23328 -0.84119,-0.2201 -1.97786,-0.62895 -2.52594,-0.90856 -0.54809,-0.27961 -1.94344,-1.27659 -3.10079,-2.21552 -1.15735,-0.93892 -2.43782,-2.0204 -2.8455,-2.40329 -0.40768,-0.38289 -0.8579,-0.69616 -1.00049,-0.69616 -0.14259,0 -0.3382,-0.20836 -0.43467,-0.46302 -0.0965,-0.25466 -0.92347,-1.16165 -1.83776,-2.01554 -0.9143,-0.85388 -2.29014,-2.02206 -3.05743,-2.59594 -0.7673,-0.57388 -1.9904,-1.38069 -2.718,-1.7929 -0.7276,-0.41222 -2.18665,-1.05738 -3.24231,-1.43369 -1.055669,-0.37632 -2.981009,-0.81329 -4.278539,-0.97105 -1.69291,-0.20584 -2.94028,-0.20602 -4.41696,-6.3e-4 -1.1318,0.15742 -2.65927,0.56275 -3.39438,0.90074 -0.73511,0.338 -1.72937,0.94673 -2.20946,1.35275 -0.4801,0.40601 -1.1737,1.33179 -1.54133,2.05728 -0.495825,0.97845 -0.670875,1.74308 -0.677905,2.96107 -0.007,1.14274 0.15301,1.95801 0.524915,2.68136 0.29391,0.57165 0.87271,1.35921 1.28622,1.75013 0.41351,0.39093 1.10902,0.84668 1.54558,1.01278 0.43657,0.1661 1.41907,0.3084 2.18335,0.31622 1.06466,0.0109 1.62945,-0.14451 2.41534,-0.66459 0.61615,-0.40774 1.25918,-1.161 1.61031,-1.88636 0.46234,-0.95506 0.54485,-1.44264 0.39462,-2.33185 -0.13408,-0.79363 -0.48197,-1.41633 -1.18284,-2.1172 -0.54609,-0.54609 -0.83744,-0.99289 -0.64745,-0.99289 0.19,0 0.69867,0.29721 1.13038,0.66047 0.43171,0.36326 0.98369,1.15725 1.22664,1.76442 0.30655,0.76616 0.38685,1.43437 0.26242,2.1838 -0.0986,0.59392 -0.33318,1.37751 -0.52126,1.74131 -0.18809,0.3638 -0.68002,0.97529 -1.0932,1.35885 -0.41317,0.38357 -1.16794,0.91534 -1.67726,1.18171 -0.62164,0.32511 -1.49138,0.48403 -2.64584,0.48344 -1.27938,-6.4e-4 -2.02468,-0.15811 -2.91041,-0.61492 -0.65485,-0.33772 -1.588215,-0.98816 -2.074155,-1.44542 -0.48594,-0.45725 -1.19855,-1.42668 -1.58358,-2.15429 -0.61439,-1.16102 -0.70033,-1.63051 -0.70223,-3.83646 -0.002,-2.04202 0.11724,-2.81134 0.63439,-4.10104 0.44924,-1.12037 1.11049,-2.06181 2.247205,-3.19943 1.11224,-1.113117 2.22472,-1.902447 3.59503,-2.550777 1.09141,-0.51637 2.63922,-1.09511 3.43959,-1.28609 0.80036,-0.19098 2.5863,-0.34177 3.96875,-0.3351 1.38244,0.007 3.20639,0.16008 4.05322,0.34089 0.846819,0.18082 2.361119,0.6675 3.365109,1.08151 1.00398,0.41401 2.39472,1.13715 3.09053,1.60698 0.6958,0.46983 2.71832,2.269397 4.49449,3.999047 2.72054,2.64929 3.34311,3.13252 3.95114,3.06681 0.58316,-0.063 0.75095,0.049 0.87378,0.58345 0.11374,0.49488 0.62925,0.90417 2.04699,1.62522 1.21763,0.61927 2.46362,1.02975 3.48589,1.1484 1.16445,0.13515 2.00259,0.065 3.12663,-0.2618 0.84464,-0.24554 2.073,-0.75794 2.72969,-1.13867 0.65669,-0.38072 1.74398,-1.08356 2.41621,-1.56185 0.67222,-0.4783 1.35683,-0.86963 1.52135,-0.86963 0.1726,0 0.29913,-0.44768 0.29913,-1.05833 v -1.05834 h 1.07681 c 0.76337,0 1.41217,-0.23073 2.22894,-0.79268 0.63367,-0.43598 1.48856,-0.92079 1.89975,-1.07735 0.41119,-0.15657 1.34218,-0.39759 2.06886,-0.53561 0.8985,-0.17065 1.78737,-0.15454 2.77812,0.0504 0.80129,0.16572 2.25759,0.70392 3.23623,1.196 1.37995,0.69387 2.10744,0.89469 3.24114,0.89469 h 1.46182 v 0.95847 c 0,0.85997 0.24814,1.19986 2.41458,3.30729 1.32803,1.29186 2.51865,2.34882 2.64584,2.34882 0.12718,0 0.23124,-0.47625 0.23124,-1.05833 v -1.05833 h 1.45521 1.45521 v 1.19062 1.19063 h -1.04272 c -0.57349,0 -1.10692,0.10387 -1.18538,0.23083 -0.0785,0.12695 0.1837,0.57344 0.58258,0.99219 4.33889,4.55492 -1.82884,4.27008 -3.40016,1.48041 -0.17598,-0.39548 -0.90648,-1.19531 -1.62334,-1.77739 -0.71686,-0.58208 -1.78793,-1.44529 -2.38016,-1.91823 -0.84439,-0.6743 -1.32602,-0.8599 -2.23151,-0.8599 -1.09836,0 -1.15473,-0.0375 -1.15473,-0.76892 0,-0.71736 -0.0843,-0.78018 -1.25677,-0.93679 -0.69122,-0.0923 -1.88505,-0.0464 -2.65295,0.10196 -0.7679,0.14841 -1.66087,0.40946 -1.98438,0.58011 -0.3235,0.17065 -1.24303,0.75432 -2.0434,1.29705 -0.80036,0.54272 -2.55006,1.99789 -3.88822,3.2337 -1.33815,1.23582 -2.97505,2.58939 -3.63754,3.00794 -1.17992,0.74544 -1.20455,0.78939 -1.20501,2.15006 l -4.8e-4,1.38906 h -1.4552 c -1.45231,0 -1.45521,-0.002 -1.45521,-0.82379 z m -12.17084,-1.42517 v -1.45521 h 1.32292 1.32292 v 1.45521 1.45521 h -1.32292 -1.32292 z m 29.63334,-2.11666 v -1.7198 h 1.5875 1.5875 v 1.7198 1.71979 h -1.5875 -1.5875 z M 102.85491,99.1239 v -1.86529 h 1.59958 1.59959 l -0.0782,1.78594 -0.0782,1.78594 -1.52135,0.0794 -1.52135,0.0793 z m 6.00967,1.14577 c -0.10386,-0.10386 -0.18884,-0.76431 -0.18884,-1.46766 v -1.27882 h 1.33674 1.33675 l -0.08,1.38907 -0.08,1.38906 -1.06793,0.0786 c -0.58736,0.0432 -1.15291,-0.006 -1.25677,-0.11024 z m -3.62842,-5.5246 v -1.45521 h 1.32291 1.32292 v 1.45521 1.45521 h -1.32292 -1.32291 z m 56.79721,-0.0441 c -0.097,-0.097 -0.17638,-0.67744 -0.17638,-1.28984 0,-0.6124 0.0703,-1.46495 0.15622,-1.89456 0.15496,-0.77482 0.17199,-0.78151 2.11666,-0.83172 l 1.96045,-0.0506 v 2.12156 2.12156 h -1.94028 c -1.06715,0 -2.01965,-0.0794 -2.11667,-0.17639 z m 7.23195,-3.36833 v -2.48639 l 2.3151,-0.11151 c 1.27331,-0.0613 2.4044,-0.0665 2.51354,-0.0115 0.10914,0.055 0.19844,1.22404 0.19844,2.5979 v 2.49793 h -2.51354 -2.51354 z m -51.32917,-0.8209 v -2.24896 h 2.24896 2.24896 v 2.24896 2.24895 h -2.24896 -2.24896 z m 10.05417,-3.70417 v -1.455207 h 1.45521 1.45521 l -0.004,0.859897 c -0.002,0.47294 -0.0754,1.12778 -0.16315,1.45521 -0.13783,0.51431 -0.33534,0.59531 -1.45159,0.59531 h -1.29206 z m 26.10555,1.01424 c -0.097,-0.097 -0.17638,-0.75186 -0.17638,-1.45521 v -1.278817 l 1.52135,-3.6e-4 1.52135,-3.6e-4 -0.0906,1.455567 -0.0906,1.45556 h -1.25433 c -0.68989,0 -1.33371,-0.0794 -1.43073,-0.17638 z m -30.33888,-3.924657 v -1.45521 h 1.45521 1.4552 v 1.45521 1.45521 h -1.4552 -1.45521 z m 10.84791,-2.51354 v -3.175 h 3.3073 3.30729 v 3.175 3.175 h -3.30729 -3.3073 z m -25.08309,0.46302 0.08,-1.38906 h 1.32292 1.32291 l 0.08,1.38906 0.08,1.38906 h -1.48286 -1.48287 z m 53.06482,-1.85208 c -0.0702,-0.90951 -0.0775,-1.74294 -0.0162,-1.85208 0.0613,-0.10914 0.87839,-0.19844 1.81569,-0.19844 h 1.70418 v 1.85208 1.85208 h -1.68799 -1.68799 z"
       transform="translate(-29.597439,-66.224961)"
       id="path7"
       style="fill:url(#mainGradient)" />
  </g>
  <!-- Text "mutflow" (scaled and centered below logo) -->
  <g
     transform="translate(30.4672,55.990767)"
          id="g8">
    <path
       fill="url(#textGradient)"
       d="m 80.565626,212.3515 c -1.067942,-0.47465 -1.941907,-1.4663 -2.255277,-2.55895 -0.142045,-0.49529 -0.258264,-2.8956 -0.258264,-5.33404 V 200.025 h 1.058333 1.058333 l 0.01883,2.71198 c 0.01035,1.49158 0.103629,3.64451 0.207278,4.78428 0.160608,1.76611 0.283617,2.14408 0.832537,2.55813 1.38504,1.04474 3.576114,0.84911 4.859066,-0.43384 l 0.696877,-0.69688 v -4.47705 -4.47705 l 1.124479,0.0814 1.124479,0.0814 0.07102,6.15156 0.07102,6.15156 h -1.06321 c -0.93745,0 -1.06321,-0.073 -1.06321,-0.61736 0,-0.91885 -0.222954,-0.98345 -0.978288,-0.28343 -1.210587,1.12193 -3.893056,1.50787 -5.504003,0.79188 z m 14.779389,-0.13521 c -0.457065,-0.27871 -0.933315,-0.66522 -1.058333,-0.85891 -0.125019,-0.1937 -0.286838,-2.37624 -0.359598,-4.85009 l -0.132292,-4.49792 -1.124479,-0.0814 c -1.08543,-0.0785 -1.124479,-0.11246 -1.124479,-0.97697 0,-0.86452 0.03905,-0.89844 1.124479,-0.97698 l 1.124479,-0.0814 0.07881,-1.50312 c 0.07549,-1.43979 0.113104,-1.51064 0.892948,-1.68192 1.037042,-0.22778 1.267885,0.12185 1.273154,1.92826 l 0.0041,1.38907 h 1.719792 1.719791 v 0.92604 0.92604 H 97.763542 96.04375 v 4.06864 c 0,4.56193 0.06732,4.73972 1.790375,4.72812 0.543263,-0.004 1.156307,-0.0497 1.36232,-0.10222 0.24284,-0.062 0.441733,0.21311 0.565549,0.78218 0.168204,0.77308 0.11359,0.90718 -0.457939,1.12448 -1.095411,0.41647 -3.059533,0.28649 -3.95904,-0.26199 z m 26.597495,0.14368 c -2.51677,-0.89939 -3.9396,-2.85286 -4.13275,-5.67404 -0.0945,-1.37976 -0.005,-2.03411 0.41055,-2.99102 2.17404,-5.0106 9.22621,-5.25089 11.74932,-0.40034 0.71103,1.36691 0.76902,4.29732 0.11432,5.77677 -1.26947,2.86868 -5.04687,4.39451 -8.14144,3.28863 z m 4.47605,-2.20192 c 1.84315,-1.3761 2.41162,-3.75061 1.42948,-5.97089 -1.3935,-3.15024 -5.74623,-3.23333 -7.35547,-0.14041 -0.53506,1.02837 -0.4747,3.59503 0.11086,4.71362 1.00764,1.92492 4.11017,2.67062 5.81513,1.39768 z M 55.297919,206.2427 v -6.2177 h 1.058333 c 0.999537,0 1.058334,0.0441 1.058334,0.79375 0,0.82963 0.366166,1.07098 0.62026,0.40883 0.249459,-0.65008 2.186814,-1.46717 3.478739,-1.46717 1.553073,0 2.805169,0.52973 3.518772,1.48869 l 0.565744,0.76027 0.604596,-0.72249 c 1.304097,-1.55838 4.25182,-2.00351 6.137454,-0.9268 1.843036,1.05239 2.126049,1.99123 2.231904,7.40398 l 0.09185,4.69635 H 73.44758 72.231256 v -4.24647 c 0,-4.48708 -0.213933,-5.47877 -1.308261,-6.06443 -0.679802,-0.36382 -2.474245,-0.34594 -3.305788,0.0329 -1.243605,0.56663 -1.407453,1.16214 -1.613373,5.86388 l -0.193321,4.41409 h -1.022962 -1.022962 v -4.32649 c 0,-4.04887 -0.0382,-4.38313 -0.595312,-5.209 -0.796999,-1.18148 -2.014319,-1.49919 -3.528541,-0.9209 -1.84067,0.70296 -1.961563,1.07777 -1.961563,6.08146 v 4.37493 h -1.190625 -1.190625 z m 48.418751,0.92605 v -5.29167 h -1.15094 c -1.12753,0 -1.1504,-0.0175 -1.12448,-0.8599 0.0252,-0.8176 0.0818,-0.86389 1.15094,-0.94125 l 1.12448,-0.0814 9.9e-4,-1.37385 c 0.002,-2.24766 1.10799,-3.54445 3.39552,-3.97989 1.22572,-0.23333 3.29374,0.30742 3.1006,0.81074 -0.0809,0.21086 -0.14711,0.60316 -0.14711,0.87178 0,0.4329 -0.16284,0.47161 -1.43256,0.34056 -1.29005,-0.13314 -1.50061,-0.0798 -2.11667,0.53626 -0.51028,0.51028 -0.68411,0.95608 -0.68411,1.75447 v 1.07036 h 1.85209 1.85208 v 0.92604 0.92604 h -1.85208 -1.85209 v 5.29167 5.29166 h -1.05833 -1.05833 z m 8.73125,-3.43959 v -8.73125 h 1.19062 1.19063 v 8.73125 8.73125 h -1.19063 -1.19062 z m 23.67809,8.40052 c -1.62425,-4.5601 -4.09893,-11.74359 -4.09893,-11.89836 0,-0.11348 0.53578,-0.20632 1.19063,-0.20632 0.67727,0 1.19062,0.12339 1.19062,0.28618 0,0.50769 2.76508,8.97423 2.93088,8.97423 0.0881,0 0.73447,-1.69664 1.43629,-3.77031 1.91171,-5.64845 1.85348,-5.53684 2.8383,-5.43996 0.83466,0.0821 0.83564,0.0841 2.36512,4.71236 0.84156,2.54661 1.53534,4.68974 1.54171,4.7625 0.006,0.0728 0.73081,-2.0406 1.60983,-4.69636 l 1.59823,-4.82864 h 1.16277 1.16277 l -0.9389,2.57968 c -0.5164,1.41883 -1.50491,4.18704 -2.19668,6.15157 l -1.25778,3.57187 -1.04944,0.0789 -1.04944,0.0789 -1.3996,-4.31226 c -0.76977,-2.37175 -1.48999,-4.40883 -1.60049,-4.52686 -0.11049,-0.11803 -0.90204,1.81627 -1.759,4.29844 l -1.55811,4.51303 -1.00049,0.001 c -0.56202,5.9e-4 -1.05212,-0.1439 -1.11829,-0.32969 z"
       transform="translate(-55.297919,-194.58488)"
       id="path8"
       style="fill:url(#textGradient)" />
  </g>
</svg>
